<?xml version="1.0" encoding="UTF-8" standalone="no"?>
<svg
   version="1.0"
   width="1250pt"
   height="1280pt"
   viewBox="0 0 1250 1280"
   preserveAspectRatio="xMidYMid"
   id="svg27"
   xmlns="http://www.w3.org/2000/svg"
   xmlns:svg="http://www.w3.org/2000/svg">
  <defs
     id="defs27" />
  <metadata
     id="metadata1">
Created by potrace 1.15, written by Peter Selinger 2001-2017
</metadata>
  <g
     id="g27"
     transform="matrix(1.0623383,0,0,1.0623383,-54.559658,-53.865698)">
    <path
       d="m 663.85277,210.70336 c -69.04097,7.83982 -68.02938,7.75552 -70.38976,9.6101 -1.51738,1.18019 -1.60168,1.68598 -0.67439,2.86617 1.43308,1.77028 74.09892,41.64377 78.98827,43.32975 2.10748,0.67439 7.41832,1.51738 11.80188,1.68598 6.99682,0.4215 17.02842,-0.67439 74.26752,-8.00841 37.51311,-4.80505 67.69219,-9.10431 69.79967,-9.863 3.79346,-1.43309 4.38356,-2.69757 2.10748,-4.72075 -1.85458,-1.51739 -77.80809,-38.8619 -82.02304,-40.29498 -1.60169,-0.5058 -7.33403,-1.09589 -12.64487,-1.26449 -8.09272,-0.33719 -19.6417,0.75869 -71.23276,6.65963 z"
       id="path1"
       style="fill:#00bb00;fill-opacity:1;stroke:none;stroke-width:0.0842991" />
    <path
       d="m 488.25771,230.26076 c -73.76173,8.26131 -78.31388,9.02 -77.55519,12.72916 0.3372,1.68599 69.88397,45.77443 74.68902,47.37611 1.68598,0.59009 7.50262,1.26449 12.81347,1.51738 8.8514,0.3372 16.01683,-0.42149 82.02304,-8.9357 39.78918,-5.14225 73.76173,-9.6944 75.53201,-10.2002 4.21495,-1.09588 6.40673,-3.37196 4.88935,-5.22654 -0.5058,-0.75869 -17.95571,-10.70599 -38.6933,-22.08637 -41.47516,-22.92936 -42.48675,-23.35086 -56.31181,-23.18226 -3.96206,0.0843 -38.77759,3.62486 -77.38659,8.00842 z"
       id="path2"
       style="fill:#ff6400;fill-opacity:1;stroke:none;stroke-width:0.0842991" />
    <path
       d="m 299.09049,251.25124 c -42.48676,4.80505 -79.32547,9.2729 -81.85445,10.03159 -4.88935,1.43309 -6.99682,3.11907 -6.23813,5.05795 0.42149,1.09589 21.24338,16.94412 55.89031,42.48676 16.85983,12.39197 14.83665,12.39197 106.55409,0.67439 85.7322,-11.04318 93.23483,-12.05477 96.101,-13.57216 3.45626,-1.77028 4.38355,-3.20336 3.11906,-4.88935 -1.93888,-2.52897 -69.20957,-44.76283 -73.93032,-46.36451 -9.6944,-3.37197 -15.93254,-2.95047 -99.64156,6.57533 z"
       id="path3"
       style="fill:#ff6400;fill-opacity:1;stroke:none;stroke-width:0.0842991" />
    <path
       d="m 761.63975,262.63162 c -34.73123,4.55215 -64.65742,8.68281 -66.3434,9.1886 -1.68599,0.5901 -3.70917,1.60169 -4.46786,2.27608 -1.26448,1.26449 -1.26448,1.51738 0.0843,2.95047 2.61327,2.95047 86.1537,48.1348 91.21165,49.39928 10.62169,2.61328 17.61851,1.93888 86.99669,-8.51421 35.91142,-5.39514 66.5963,-10.03159 68.11369,-10.28449 3.62486,-0.67439 6.99682,-3.37197 6.32243,-5.14225 -0.67439,-1.77028 -89.01987,-45.43722 -95.258,-47.03891 -9.27291,-2.44467 -19.726,-1.51738 -86.6595,7.16543 z"
       id="path4"
       style="fill:#ff6400;fill-opacity:1;stroke:none;stroke-width:0.0842991" />
    <path
       d="m 202.4837,274.1806 c -0.5058,1.34878 -1.09589,3.54056 -1.43309,4.88935 -0.2529,1.43308 2.19178,38.1032 5.47944,81.51725 6.15384,81.60154 6.74393,86.74379 10.87459,94.9208 1.77028,3.45627 6.99683,8.51421 42.65535,40.96938 12.05478,10.95888 22.59217,19.89459 23.35086,19.89459 1.77028,0 3.70916,-2.78187 4.46785,-6.40674 0.7587,-3.79346 -8.51421,-161.01131 -10.11589,-170.45281 -1.51738,-9.18861 -4.97365,-17.28132 -8.93571,-20.90619 -6.49103,-5.90093 -62.21275,-46.70171 -63.73013,-46.70171 -1.09589,0 -2.02318,0.84299 -2.61327,2.27608 z"
       id="path5"
       style="fill:#ffff00;fill-opacity:1;stroke:none;stroke-width:0.0842991" />
    <path
       d="m 585.0331,285.39238 c -38.6933,5.05795 -72.32865,9.6101 -74.77332,10.1159 -5.47944,1.18018 -8.26131,3.28766 -7.50262,5.56374 0.59009,1.85458 78.90397,51.42246 84.13052,53.19274 5.05795,1.68598 16.77552,2.61327 24.02525,1.85458 9.5258,-0.92729 148.45075,-21.74917 152.24421,-22.76076 4.21495,-1.09589 6.82822,-3.62486 5.73234,-5.64804 -0.4215,-0.75869 -20.23179,-12.13907 -43.91984,-25.28974 -47.62901,-26.38562 -47.62901,-26.30132 -61.95986,-26.21702 -4.29925,0.0843 -37.8503,4.04636 -77.97668,9.1886 z"
       id="path6"
       style="fill:#ffff00;fill-opacity:1;stroke:none;stroke-width:0.0842991" />
    <path
       d="m 386.50867,311.01931 c -43.58264,5.73234 -80.58995,10.70599 -82.19164,11.04319 -1.60168,0.33719 -4.38355,1.34878 -6.06953,2.19178 -6.32244,3.20336 -6.57534,2.95046 33.80394,33.04525 20.73759,15.42674 38.6933,28.2402 40.71648,28.9146 2.27607,0.84299 7.58692,1.51738 14.16225,1.77028 10.28449,0.4215 12.89776,0 95.1737,-12.30767 91.29595,-13.65646 92.39184,-13.90936 92.39184,-18.63011 0,-1.77028 -4.97365,-5.22654 -40.80078,-27.90301 -22.42356,-14.24655 -42.31815,-26.30132 -44.25703,-26.89141 -1.85458,-0.5058 -8.00842,-1.09589 -13.57216,-1.26449 -9.1886,-0.3372 -17.53422,0.67439 -89.35707,10.03159 z"
       id="path7"
       style="fill:#ffff00;fill-opacity:1;stroke:none;stroke-width:0.0842991" />
    <path
       d="m 944.14734,310.42922 c -8.42991,0.84299 -137.57616,20.65328 -139.85223,21.41198 -1.43309,0.50579 -3.03477,1.68598 -3.54057,2.61327 -0.75869,1.43308 -0.59009,2.10748 1.01159,3.62486 2.86617,2.69757 94.58361,52.77125 100.14736,54.62583 2.78187,0.92729 8.17701,1.77028 13.15066,2.02318 8.00841,0.42149 11.88617,-0.1686 78.73538,-11.88618 38.60897,-6.74393 71.23277,-12.81346 72.41297,-13.31926 3.6248,-1.85458 4.2149,-3.70916 1.8545,-6.06953 -3.0347,-2.86617 -99.72581,-50.15798 -105.37385,-51.50677 -5.14225,-1.26448 -13.99365,-1.93888 -18.54581,-1.51738 z"
       id="path8"
       style="fill:#00bb00;fill-opacity:1;stroke:none;stroke-width:0.0842991" />
    <path
       d="m 285.77123,335.12886 c -0.92729,0.92729 -1.85458,2.61327 -2.10748,3.79346 -0.2529,1.18019 -0.5901,3.03477 -0.84299,4.13066 -0.2529,1.09589 0.33719,14.33085 1.26448,29.33609 0.92729,14.92095 2.95047,51.08527 4.63646,80.33706 1.60168,29.1675 3.45626,56.14322 4.13065,59.85238 1.51739,8.68281 4.13066,15.59533 7.50262,19.81029 3.45627,4.29926 70.13687,64.74172 72.75014,65.92191 1.60169,0.75869 2.36038,0.67439 3.62487,-0.50579 3.11906,-2.86617 3.54056,-7.75552 2.61327,-28.9989 -1.18019,-27.81871 -2.27608,-55.63742 -4.21496,-107.64998 -0.92729,-24.61534 -2.10748,-46.9546 -2.61327,-49.73648 -1.34879,-7.67122 -3.96206,-15.08954 -6.74393,-18.883 -1.60168,-2.27607 -15.42674,-13.15066 -39.53629,-31.27497 -20.40038,-15.34244 -37.5131,-27.81871 -37.9346,-27.81871 -0.5058,0 -1.60168,0.75869 -2.52897,1.68598 z"
       id="path9"
       style="fill:#0000ff;fill-opacity:1;stroke:none;stroke-width:0.0842991" />
    <path
       d="m 764.59022,337.32064 c -0.67439,0.1686 -34.64694,5.22654 -75.44771,11.29608 -79.83127,11.97048 -81.51725,12.30767 -82.02304,16.94412 -0.2529,2.10748 2.61327,4.04636 46.02732,31.35928 32.96095,20.73758 47.7133,29.58899 51.25386,30.68488 3.79346,1.09588 7.58692,1.51738 15.93253,1.43308 10.2845,0 15.67964,-0.84299 85.98511,-13.31926 41.30656,-7.24972 76.4593,-13.57216 78.22958,-14.07795 3.45626,-0.92729 6.49103,-3.37197 6.49103,-5.22655 0,-0.67439 -0.67439,-1.77028 -1.43309,-2.52897 -0.84299,-0.6744 -23.18225,-13.31926 -49.73648,-27.98731 -53.10844,-29.33609 -52.68694,-29.16749 -66.8492,-28.9989 -3.96206,0.0843 -7.75552,0.2529 -8.42991,0.4215 z"
       id="path10"
       style="fill:#0000ff;fill-opacity:1;stroke:none;stroke-width:0.0842991" />
    <path
       d="m 567.75178,366.90963 c -1.34879,0.1686 -38.94619,5.81664 -83.45613,12.56057 -44.50993,6.65963 -82.95033,12.72917 -85.47931,13.48786 -4.21495,1.18019 -8.51421,4.29925 -8.51421,6.15383 0,0.5058 1.01159,1.85458 2.36038,2.95047 6.23813,5.56374 82.52884,61.53836 85.5636,62.88714 5.56375,2.44468 14.33085,3.62487 23.26656,3.11907 4.80505,-0.2529 43.32975,-6.65963 94.75221,-15.67963 89.86286,-15.76394 92.47613,-16.35403 93.74062,-20.40039 0.3372,-0.84299 0.1686,-2.19178 -0.3372,-3.03477 -1.18018,-2.19178 -90.45295,-58.58789 -95.5952,-60.35817 -4.38355,-1.51738 -20.82188,-2.61327 -26.30132,-1.68598 z"
       id="path11"
       style="fill:#00bb00;fill-opacity:1;stroke:none;stroke-width:0.0842991" />
    <path
       d="m 1063.8521,377.02552 c -22.4236,3.62487 -132.26532,23.35086 -135.38439,24.27815 -7.41832,2.19178 -13.65646,9.02001 -16.77553,18.20861 -1.26448,3.70916 -13.90935,156.96496 -13.90935,168.42964 0,6.65963 1.77028,10.62169 5.81664,13.31926 3.96206,2.69757 6.91253,2.44467 22.92936,-1.43308 7.58692,-1.77029 36.92301,-8.85141 65.16322,-15.59534 28.24015,-6.74393 52.60265,-12.89777 54.12005,-13.57216 5.9009,-2.78187 12.5605,-11.97047 14.1622,-19.3045 0.2529,-1.43308 4.6365,-38.0189 9.7787,-81.34865 6.6597,-56.9019 9.02,-79.66267 8.5142,-81.85444 -1.7702,-7.83982 -7.5026,-12.22337 -14.4151,-11.12749 z"
       id="path12"
       style="fill:#ff0000;fill-opacity:1;stroke:none;stroke-width:0.0842991" />
    <path
       d="m 382.63091,407.12031 c -2.95047,1.43308 -4.04635,5.64804 -4.04635,16.26973 -0.0843,11.21178 5.56374,162.8659 6.23813,170.03132 0.75869,7.08113 4.21496,17.36562 7.41832,22.00207 1.43309,2.10748 21.32768,20.73759 44.00414,41.39087 39.11479,35.48993 41.47517,37.42881 44.25704,37.26021 2.27608,-0.1686 3.20337,-0.84299 4.63645,-3.20337 1.51739,-2.69757 1.68598,-4.21495 1.51739,-15.59533 -1.60169,-132.60252 -2.10748,-168.34534 -2.78187,-175.42647 -0.5058,-5.05795 -1.60169,-10.79029 -2.78188,-13.99365 -4.29925,-11.97048 -2.78187,-10.53739 -50.15797,-46.02732 -23.94095,-18.04001 -44.17274,-32.96096 -44.93143,-33.21386 -0.75869,-0.33719 -2.27608,-0.0843 -3.37197,0.5058 z"
       id="path13"
       style="fill:#ffff00;fill-opacity:1;stroke:none;stroke-width:0.0842991" />
    <path
       d="m 822.33512,419.42798 c -102.67633,18.29291 -92.64473,16.26973 -97.70268,19.6417 -5.56374,3.70916 -10.95889,11.46468 -12.30767,17.70281 -1.26449,5.98524 -6.91253,176.60665 -5.90094,179.97862 2.19178,7.67122 7.08113,11.54898 14.33085,11.46468 6.15384,-0.0843 148.28215,-34.14114 153.2558,-36.67012 2.02318,-1.01159 5.31084,-3.70916 7.33402,-5.98523 6.99683,-7.83982 6.57533,-4.38356 13.57216,-94.58362 3.37196,-44.50993 6.23813,-83.03463 6.23813,-85.6479 -0.0843,-10.0316 -6.32243,-17.02842 -15.00524,-16.77553 -1.68598,0.0843 -30.43198,4.97365 -63.81443,10.87459 z"
       id="path14"
       style="fill:#ff0000;fill-opacity:1;stroke:none;stroke-width:0.0842991" />
    <path
       d="m 592.62002,459.97586 c -63.14004,11.21178 -85.8165,15.51103 -88.85127,16.94412 -5.90094,2.69757 -11.12749,8.17701 -14.24655,14.83664 l -2.69758,5.64805 0.1686,14.75234 c 0.4215,33.71965 2.78187,158.65094 3.11907,166.23786 0.4215,9.6944 2.27608,13.90936 7.75552,17.78712 6.74393,4.72075 5.90094,4.88935 72.83444,-11.12749 33.12955,-8.00841 70.72696,-16.94412 83.45613,-20.06319 12.72916,-3.03476 24.53104,-6.23813 26.21702,-7.08112 4.29926,-2.10748 10.36879,-8.42991 12.56057,-12.98207 1.01159,-2.10747 2.19178,-6.15383 2.61327,-9.1043 0.4215,-2.86617 1.93888,-43.49835 3.37197,-90.28436 2.78187,-94.58361 2.95047,-89.77856 -2.86617,-95.7638 -3.70916,-3.79346 -7.16543,-5.05794 -13.40356,-4.97364 -2.95047,0.0843 -43.41405,6.91252 -90.03146,15.17384 z"
       id="path15"
       style="fill:#ff0000;fill-opacity:1;stroke:none;stroke-width:0.0842991" />
    <path
       d="m 217.15174,471.01904 c -1.93888,2.78187 -1.77028,7.75552 2.44468,63.73014 2.10748,27.65011 4.38355,58.25069 5.05794,68.02938 1.51739,19.8946 2.27608,24.53105 5.31085,32.70806 2.02318,5.56374 3.28767,7.08113 32.37086,37.93461 16.60693,17.70281 31.02208,32.53946 32.03367,33.04525 1.34878,0.59009 2.02318,0.3372 3.28766,-1.18019 1.26449,-1.51738 1.60169,-3.37196 1.60169,-8.09271 0,-14.16225 -8.51422,-149.37804 -9.7787,-154.68889 -1.34879,-5.98523 -4.63645,-13.82505 -6.91253,-16.35402 -4.13066,-4.63646 -61.87555,-56.98621 -62.88714,-56.98621 -0.6744,0 -1.85458,0.84299 -2.52898,1.85458 z"
       id="path16"
       style="fill:#00bb00;fill-opacity:1;stroke:none;stroke-width:0.0842991" />
    <path
       d="m 297.9103,543.17909 c -3.54056,2.36037 -3.54056,6.65963 -0.75869,53.86713 1.09589,19.3888 3.03477,51.59106 4.21495,71.48566 2.27608,38.4404 2.95047,43.58264 7.50262,52.51835 2.19178,4.38355 70.30547,77.30229 72.91874,78.14528 0.84299,0.2529 2.19178,0.2529 2.86617,-0.0843 3.45627,-1.26448 3.54057,-3.87776 0.6744,-77.21799 -3.37197,-88.85127 -3.62487,-92.39184 -6.32244,-100.40025 -1.18019,-3.37197 -2.95047,-7.67122 -3.96206,-9.4415 -2.02318,-3.45627 -73.59313,-69.54678 -75.19481,-69.54678 -0.59009,0 -1.43309,0.3372 -1.93888,0.6744 z"
       id="path17"
       style="fill:#0000ff;fill-opacity:1;stroke:none;stroke-width:0.0842991" />
    <path
       d="m 978.28849,596.87763 c -34.73124,8.42991 -64.91032,15.84823 -67.0178,16.52262 -5.39515,1.60169 -13.48786,9.7787 -15.84824,16.01684 -1.51738,4.04635 -2.52897,15.25814 -7.75552,80.42136 -3.28766,41.64376 -5.81663,77.04939 -5.47944,78.65107 0.3372,1.77028 1.77028,4.21496 3.37197,5.81664 2.36037,2.36038 3.37196,2.78187 6.91252,2.78187 2.86617,0 22.25497,-5.39514 66.42771,-18.6301 34.30974,-10.28449 63.73011,-19.3045 65.41611,-20.14749 4.0464,-2.10748 8.9357,-7.75552 11.4647,-13.23496 1.8546,-4.04636 2.9505,-12.13908 10.4531,-75.44771 4.5521,-39.0305 8.3456,-72.91874 8.3456,-75.27912 0,-2.52897 -0.5901,-5.39514 -1.5174,-7.08112 -1.7703,-3.20337 -6.2381,-5.98524 -9.4415,-5.90094 -1.1802,0 -30.5163,6.99682 -65.33181,15.51104 z"
       id="path18"
       style="fill:#0000ff;fill-opacity:1;stroke:none;stroke-width:0.0842991" />
    <path
       d="m 795.3594,641.13466 c -39.87348,9.6944 -73.76173,18.20861 -75.27911,18.96731 -6.91253,3.20336 -14.41515,13.15066 -15.67964,20.65328 -0.2529,1.60168 -1.68598,38.3561 -3.11907,81.60155 -2.52897,77.89238 -2.61327,78.65107 -1.01159,81.77014 2.44468,4.55215 6.32244,6.91253 11.54898,6.91253 3.28767,0 21.91777,-5.22655 72.16005,-20.23179 37.34451,-11.12748 69.46247,-20.82188 71.40135,-21.58057 7.41832,-2.69758 14.24655,-9.6944 16.85983,-17.44992 1.43308,-4.04636 13.15066,-154.09879 12.39197,-157.80795 -1.34879,-6.65963 -6.32244,-10.62169 -13.15067,-10.45309 -1.93888,0 -36.24862,7.92411 -76.1221,17.61851 z"
       id="path19"
       style="fill:#ff0000;fill-opacity:1;stroke:none;stroke-width:0.0842991" />
    <path
       d="m 389.45914,629.16419 c -1.09589,0.84299 -2.10748,3.03477 -2.52897,5.05795 -0.5058,3.11906 4.04636,140.27373 5.39514,158.73524 0.2529,3.54056 1.01159,8.9357 1.77028,11.88617 2.86617,11.21178 5.05795,13.90936 44.42564,55.72172 40.12638,42.57105 43.66694,46.11162 46.11162,46.11162 0.92729,0 2.44467,-1.01159 3.37196,-2.19178 1.68598,-2.19178 1.77028,-3.20337 1.68598,-24.69964 0,-12.30767 -0.50579,-51.42246 -1.18018,-86.91239 -1.18019,-70.47407 -1.01159,-68.36659 -6.40674,-80.16846 -3.11906,-6.82823 -4.04635,-7.75552 -50.91666,-50.66378 -31.19068,-28.5774 -37.85031,-34.39404 -39.45199,-34.39404 -0.2529,0 -1.26449,0.6744 -2.27608,1.51739 z"
       id="path20"
       style="fill:#ff6400;fill-opacity:1;stroke:none;stroke-width:0.0842991" />
    <path
       d="m 230.21811,652.85224 c -0.5058,0.92729 -0.92729,3.70916 -0.92729,6.15384 0,9.6944 9.3572,130.41073 10.53739,135.97448 2.36037,10.95888 4.55215,14.07795 32.87665,48.05049 31.35927,37.59741 32.79236,39.11479 34.73124,37.85031 0.75869,-0.5058 1.68598,-2.02318 2.10748,-3.28767 0.50579,-2.10748 -1.60169,-41.81236 -6.49103,-121.39073 -1.93888,-31.52787 -3.03477,-34.64694 -18.29291,-51.00097 -37.76601,-40.63217 -50.24228,-53.52994 -51.84396,-53.78283 -1.18019,-0.1686 -2.19178,0.33719 -2.69757,1.43308 z"
       id="path21"
       style="fill:#ffff00;fill-opacity:1;stroke:none;stroke-width:0.0842991" />
    <path
       d="m 593.63161,690.02815 c -62.38135,15.17384 -83.96192,20.73759 -87.16529,22.50787 -7.92412,4.29925 -14.16225,13.48786 -14.83665,22.00207 -0.42149,5.39514 2.19178,157.13355 2.86617,163.45599 0.2529,2.44467 1.26449,5.64804 2.27608,7.16542 2.36038,3.54057 8.34561,6.57533 12.81347,6.57533 1.85458,0 11.54898,-2.44467 21.49627,-5.39514 103.94082,-31.02207 140.61093,-42.14956 143.2242,-43.41404 6.49104,-3.37197 13.82506,-13.23497 14.83665,-20.0632 1.09589,-7.33402 5.31084,-158.81954 4.55215,-161.77 -1.77028,-6.15384 -8.85141,-11.46468 -15.17384,-11.21179 -1.09589,0 -39.28339,9.10431 -84.88921,20.14749 z"
       id="path22"
       style="fill:#0000ff;fill-opacity:1;stroke:none;stroke-width:0.0842991" />
    <path
       d="m 307.0146,735.97117 c -1.34878,2.86617 -1.26448,10.70599 0.2529,35.23703 0.67439,11.21179 2.44468,40.29498 3.79346,64.65743 2.69757,45.94302 3.20337,49.98938 7.41832,59.93667 1.93888,4.38356 67.94509,84.29912 71.06416,85.9008 1.51739,0.84299 2.10748,0.7587 3.62486,-0.75869 2.36038,-2.44467 2.44468,3.70916 -2.44467,-119.70475 -1.85458,-45.85872 -1.18019,-44.08844 -27.65011,-72.41294 -10.28449,-11.04319 -26.04843,-27.90301 -35.06844,-37.51311 -17.19702,-18.29291 -19.0516,-19.64169 -20.99048,-15.34244 z"
       id="path23"
       style="fill:#ffff00;fill-opacity:1;stroke:none;stroke-width:0.0842991" />
    <path
       d="m 957.46661,787.30934 c -37.42881,11.38038 -63.56154,19.72599 -65.92192,21.07478 -5.47944,3.20336 -10.62168,9.86299 -12.39197,16.01683 -0.42149,1.43308 -3.28766,33.46675 -6.23813,71.23275 -5.90094,73.84603 -5.90094,72.49725 -1.51739,75.95351 4.55216,3.54056 6.06954,3.11907 70.97986,-19.81029 33.46675,-11.80188 61.87554,-22.17067 63.22434,-23.09796 3.8778,-2.78187 8.5985,-8.42991 10.3688,-12.47627 2.3604,-5.39515 17.8714,-136.05878 16.6069,-140.52663 -1.1802,-4.29926 -5.1422,-7.24973 -9.4415,-7.16543 -2.0232,0 -30.01047,8.00842 -65.66899,18.79871 z"
       id="path24"
       style="fill:#0000ff;fill-opacity:1;stroke:none;stroke-width:0.0842991" />
    <path
       d="m 784.40051,839.57479 c -38.44039,11.71758 -71.14845,21.83347 -72.58154,22.59216 -4.21495,2.27608 -11.04318,10.36879 -12.81346,15.25814 -1.51739,3.96206 -1.85458,10.3688 -3.96206,72.16005 -1.26449,37.34451 -2.10748,70.38976 -1.93888,73.50886 0.2529,4.6364 0.67439,6.1538 2.27607,7.8398 2.61328,2.7819 6.99683,4.2149 10.95889,3.5405 3.54056,-0.59 135.04719,-46.87026 139.09355,-48.97774 4.04635,-2.02317 9.02,-7.41832 11.46468,-12.22337 2.78187,-5.39514 2.52897,-3.37196 8.51421,-81.43295 4.80505,-62.04415 4.88935,-64.32022 3.45626,-67.27069 -1.93888,-4.04636 -5.90094,-6.40674 -10.70599,-6.32244 -2.36037,0.0843 -30.26338,8.09272 -73.76173,21.32768 z"
       id="path25"
       style="fill:#ff0000;fill-opacity:1;stroke:none;stroke-width:0.0842991" />
    <path
       d="m 396.20307,830.38619 c -2.02318,2.44467 -2.36037,7.50262 -1.60168,26.72282 5.39514,138.84064 4.72075,128.89335 9.1043,139.76793 2.44468,5.98526 0.3372,3.28766 43.75125,55.46886 26.04842,31.1906 38.0189,45.0157 39.53628,45.3529 1.51739,0.4215 2.61328,0.084 3.87776,-1.2645 2.19178,-2.1918 2.10748,3.7092 1.18019,-75.532 -0.92729,-73.50884 -1.43309,-83.96193 -4.29926,-92.22324 -1.18018,-3.45627 -3.11906,-7.83982 -4.29925,-9.7787 -1.93888,-3.28767 -76.1221,-83.54043 -81.18005,-87.83968 -2.61327,-2.27608 -4.63645,-2.44468 -6.06954,-0.67439 z"
       id="path26"
       style="fill:#ff6400;fill-opacity:1;stroke:none;stroke-width:0.0842991" />
    <path
       d="m 669.75371,874.22173 c -0.42149,0.1686 -34.98413,10.62169 -76.7122,23.18225 -41.72806,12.56057 -77.55519,23.43516 -79.57836,24.19385 -5.22655,2.02318 -13.06637,9.5258 -15.67964,15.00524 -2.02318,4.38356 -2.10748,5.05795 -2.10748,22.08637 0.0843,33.21386 2.44468,133.95126 3.20337,135.97446 0.92729,2.2761 3.79346,5.1423 6.65963,6.6597 5.05795,2.6133 7.33402,1.8546 85.39501,-25.627 41.39086,-14.5837 76.88079,-27.4815 78.81967,-28.5774 4.72075,-2.7819 9.4415,-8.177 11.88618,-13.5721 l 2.02318,-4.4679 2.27607,-72.66583 c 2.27608,-72.32865 2.27608,-72.66584 0.6744,-75.70061 -2.52898,-4.55215 -6.49104,-6.91253 -11.71758,-6.82823 -2.36038,0 -4.63645,0.1686 -5.14225,0.3372 z"
       id="path27"
       style="fill:#0000ff;fill-opacity:1;stroke:none;stroke-width:0.0842991" />
  </g>
</svg>
